<svg width="663" height="800" xmlns="http://www.w3.org/2000/svg"><g fill="none" fill-rule="evenodd"><path d="M82.973 27.586C82.973 12.35 95.323 0 110.561 0h413.794l137.93 137.931v634.483c0 15.236-12.35 27.586-27.585 27.586H110.56c-15.235 0-27.585-12.35-27.585-27.586V27.586h-.002z" fill="#E4EAF8"/><g transform="translate(82.813)" fill="#D5DCED"><path d="M441.54 0v110.345c0 15.235 12.352 27.586 27.587 27.586h110.345L441.54 0zm9.819 765.178H.163V455.055h451.196c38.06 0 68.915 30.855 68.915 68.916v172.292c0 38.061-30.855 68.915-68.915 68.915z"/></g><path d="M230.717 134.75c.726 1.004 1.089 1.779 1.089 2.325 0 3.297 4.746 13.408 4.746 15.596 0 2.189 6.783 10.63 6.783 10.63s2.334 4.815 7.382 4.815h22.88l16.921 22.099 17.413-11.049 17.668 11.049v10.493h31.543l9.311-10.493c-15.438-4.828-24.911-8.511-28.418-11.049-3.508-2.539-9.511-6.222-18.01-11.05V154.86l-12.094-10.867h-17.413l-4.28-6.918-20.121-7.351a883.164 883.164 0 0 0-9.283-11.202c34.558-18.579 74.079-29.119 116.063-29.119 60.909 0 116.636 22.185 159.542 58.915l-.821 2.4-7.124 4.724-2.71 7.027-14.211.994-14.773 1.033-12.828 4.893.523 7.48 13.678 7.258c-3.511.476-7.691 3.485-12.539 9.028-4.848 5.542-4.527 10.125.962 13.749l22.434 7.446-3.665 11.818 9.579 14.676-1.823 5.021c-4.938-10.417-12.33-21.073-29.415-21.073-14.98 0-26.623 6.144-34.929 18.431l-71.959 124.752c-40.443-72.789-63.595-113.499-69.455-122.131-8.791-12.947-21.736-21.052-36.963-21.052-15.228 0-26.732 16.102-32.546 30.511-3.876 9.606-22.068 71.406-54.576 185.4h64.497l33.872-128.964c37.649 74.579 60.212 116.184 67.69 124.815 11.216 12.946 39.362 12.946 51.559 0 8.131-8.631 31.284-50.236 69.459-124.815l35.021 128.964h63.673c-14.424-53.926-25.875-96.146-34.352-126.659 4.111 1.993 10.142.335 18.092-4.973 12.17 2.776 18.303 4.855 18.4 6.237.097 1.382 5.534 5.598 16.313 12.649l4.65-.325 10.187-.712 16.975 6.865 3.038-.213c.002.43.003.859.003 1.289 0 135.563-109.895 245.458-245.458 245.458-45.023 0-87.214-12.121-123.489-33.279v-.261l8.571-10.035v-15.906c-2.857-5.146-4.285-8.443-4.285-9.89v-10.123l20.307-9.267-5.838-18.76-14.469-8.364 4.285-18.17h-8.571l-18.587 6.683-10.235 16.543 6.001 3.308s.812 3.867 13.96 3.867c13.147 0 2.911 7.471 0 7.471-2.912 0-10.798 2.458-13.96 7.422-2.108 3.309-5.51 6.398-10.207 9.267l-13.567-4.303-8.831 6.385c-41.265-43.916-66.543-103.029-66.543-168.046 0-82.57 40.77-155.618 103.278-200.111zm352.381 76.958l12.028 14.385 8.935 14.936-8.534 18.302-10.158 13.47-1.385-12.762-13.671-6.374-5.174 4.459 7.565 16.054 6.802 19.509-22.931-17.198-13.386-20.887-1.633-15.347-10.43 2.009c-5.081-5.714-7.996-9.365-8.744-10.95-.748-1.586 5.666-1.917 19.241-.993l9.52-6.549 11.958 8.801 11.46 5.344c-.361-3.51-.011-6.895 1.05-10.154 1.062-3.259 3.557-8.611 7.487-16.055z" fill="#A90000" paint-order="fill" filter="none"/><path d="M534.102 729.989H34.458C15.426 729.989 0 714.562 0 695.53V523.239c0-19.031 15.426-34.458 34.458-34.458h499.644c19.032 0 34.458 15.427 34.458 34.458V695.53c0 19.032-15.426 34.459-34.458 34.459z" filter="none" paint-order="fill" fill="rgb(154, 0, 0)"/><path d="M70.084 661.84V546.137c0-8.916 7.05-15.966 15.966-15.966h3.525c6.843 0 11.612 3.525 14.515 8.294l38.567 62.828 38.775-63.035c3.318-5.391 7.88-8.087 14.307-8.087h3.525c8.917 0 15.967 7.05 15.967 15.966v115.288c0 8.917-7.05 15.967-15.967 15.967-8.708 0-15.758-7.258-15.758-15.967V589.06l-27.993 43.13c-3.318 4.976-7.465 8.086-13.27 8.086-5.806 0-9.953-3.11-13.271-8.086l-27.578-42.508v72.16c0 8.708-7.05 15.55-15.759 15.55-8.708 0-15.551-6.842-15.551-15.55zm213.78-.415v-100.98h-30.688c-8.087 0-14.722-6.636-14.722-14.722 0-8.087 6.635-14.722 14.722-14.722h93.309c8.086 0 14.722 6.635 14.722 14.722 0 8.086-6.636 14.722-14.722 14.722h-30.688v100.98c0 8.917-7.05 15.967-15.967 15.967-8.916 0-15.966-7.05-15.966-15.967zm100.566 0V546.967c0-8.916 7.05-15.966 15.966-15.966h50.387c18.454 0 32.762 5.184 42.3 14.722 8.087 8.086 12.441 19.49 12.441 33.176v.415c0 22.809-11.404 36.909-29.03 44.166l22.187 26.956c3.11 3.94 5.184 7.257 5.184 12.233 0 8.917-7.465 14.723-15.137 14.723-7.257 0-12.026-3.525-15.758-8.295L441.867 629.7h-25.505v31.725c0 8.917-7.05 15.967-15.966 15.967s-15.966-7.05-15.966-15.967zm31.932-59.924h32.347c15.552 0 24.468-8.295 24.468-20.528v-.415c0-13.685-9.538-20.735-25.09-20.735h-31.725V601.5z" fill="#FFF" filter="drop-shadow(rgba(0, 0, 0, 0.3) 12px 12px 0px)"/></g></svg>